<svg xmlns="http://www.w3.org/2000/svg" width="260" height="48" viewBox="0 0 260 48" fill="none">
<path d="M10.7466 20.3621L5.00263 47.4345H0L9.89544 0.631592H15.0683L23.8819 28.3245L29.7412 0.631592H34.5736L24.6782 47.4345H20.4718L10.7466 20.3621Z" fill="#fbfbfb"/>
<path d="M62.7829 8.30843C62.7829 9.44514 62.6127 10.6972 62.3271 12.059L57.3245 35.4303C55.5618 43.6179 50.614 48 42.366 48C35.4853 48 32.0752 45.2159 32.0752 39.752C32.0752 38.6153 32.2454 37.3083 32.531 35.941L37.5336 12.6246C39.2963 4.43702 44.2441 0 52.547 0C59.3728 0 62.7829 2.78412 62.7829 8.30294V8.30843ZM47.9947 37.9398L53.8539 10.3567C54.0791 9.16508 54.1944 8.25352 54.1944 7.51218C54.1944 5.40899 53.2279 4.83789 51.4103 4.83789C48.9666 4.83789 47.7695 5.80437 46.803 10.3567L40.9437 37.9398C40.7186 39.0765 40.5484 39.9881 40.5484 40.7239C40.5484 42.7118 41.5148 43.228 43.4478 43.228C46.1221 43.228 47.0886 42.2066 47.9947 37.9398Z" fill="#fbfbfb"/>
<path d="M79.8443 32.1959C80.1299 30.889 80.3001 29.8621 80.3001 29.011C80.3001 26.6771 79.0481 25.9413 75.9235 25.9413H74.1059L69.559 47.44H60.8003L70.6902 0.631592H81.0964C88.8282 0.631592 93.095 3.07525 93.095 9.04985C93.095 10.0712 92.9797 11.2684 92.6996 12.5204C91.2774 19.2308 87.8672 22.1303 81.4368 23.6075C85.9892 24.2884 88.6031 26.5069 88.6031 30.9439C88.6031 31.9104 88.4328 32.9922 88.2022 34.1838L85.4181 47.4345H76.6593L79.8443 32.1959ZM75.1218 21.1089H76.9394C80.9206 21.1089 82.7987 18.8355 84.1056 12.6906C84.3912 11.2684 84.5614 10.0767 84.5614 9.16517C84.5614 6.38105 83.1941 5.5244 80.2397 5.5244H78.4221L75.1218 21.1089Z" fill="#fbfbfb"/>
<path d="M109.871 0.631592C118.46 0.631592 122.782 3.59144 122.782 9.44523C122.782 10.4666 122.666 11.5484 122.441 12.6851L117.889 34.2387C116.011 43.0524 110.212 47.4345 100.602 47.4345H90.4814L100.377 0.631592H109.871ZM100.201 42.657H101.453C105.434 42.657 107.708 40.7789 109.13 34.2387L113.737 12.5149C113.963 11.3782 114.078 10.4117 114.078 9.61546C114.078 6.71602 112.601 5.5189 109.355 5.5189H108.103L100.196 42.657H100.201Z" fill="#fbfbfb"/>
<path d="M150.705 8.47866C150.705 9.22 150.65 10.0162 150.59 10.8125L146.323 11.6637C146.378 11.153 146.378 10.6972 146.378 10.2414C146.378 5.9746 144.615 4.72257 141.145 4.72257C136.708 4.72257 135.115 7.73733 135.115 10.4116C135.115 11.3781 135.34 12.3446 136.082 13.5417C137.899 16.6114 146.147 26.1663 146.147 32.5912C146.147 39.8728 141.71 48 131.359 48C124.649 48 121.579 45.1555 121.579 39.4115C121.579 38.7306 121.579 37.9892 121.694 37.2479L126.417 36.3967V37.2479C126.417 41.8552 128.295 43.0468 132.216 43.0468C136.422 43.0468 138.926 41.1687 138.926 37.7586C138.926 34.9745 134.434 30.5375 129.432 21.7787C128.295 19.7909 127.784 17.7975 127.784 15.6394C127.784 6.65553 133.583 0 142.512 0C147.971 0 150.7 2.78412 150.7 8.47317L150.705 8.47866Z" fill="#fbfbfb"/>
<path d="M156.053 0.631592H177.722L176.701 5.69463H170.386L161.512 47.4345H152.753L161.627 5.69463H155.032L156.053 0.631592Z" fill="#fbfbfb"/>
<path d="M171.693 47.4345L181.588 0.631592H200.923L199.902 5.5244H189.326L186.025 20.9936H193.192L192.17 25.9413H185.004L181.424 42.6625H192L191.033 47.44H171.698L171.693 47.4345Z" fill="#fbfbfb"/>
<path d="M214.685 32.1959C214.97 30.889 215.141 29.8621 215.141 29.011C215.141 26.6771 213.889 25.9413 210.764 25.9413H208.946L204.394 47.44H195.635L205.531 0.631592H215.937C223.669 0.631592 227.935 3.07525 227.935 9.04985C227.935 10.0712 227.82 11.2684 227.54 12.5204C226.118 19.2308 222.708 22.1303 216.283 23.6075C220.83 24.2884 223.449 26.5069 223.449 30.9439C223.449 31.9104 223.279 32.9922 223.048 34.1838L220.264 47.4345H211.505L214.69 32.1959H214.685ZM209.962 21.1089H211.78C215.761 21.1089 217.639 18.8355 218.946 12.6906C219.232 11.2684 219.402 10.0767 219.402 9.16517C219.402 6.38105 218.035 5.5244 215.08 5.5244H213.263L209.962 21.1089Z" fill="#fbfbfb"/>
<path d="M235.558 20.3621L229.814 47.4345H224.811L234.706 0.631592H239.879L248.693 28.3245L254.552 0.631592H259.385L249.489 47.4345H245.283L235.558 20.3621Z" fill="#fbfbfb"/>
</svg>